<svg version="1.1" id="Layer_1" xmlns="http://www.w3.org/2000/svg" x="0" y="0" viewBox="0 0 512 512" style="enable-background:new 0 0 512 512" xml:space="preserve"><path d="M170.489 200.952H59.324c-13.851 0-25.119 11.268-25.119 25.119v59.858c0 13.851 11.268 25.119 25.119 25.119h57.396c9.825 0 18.802-5.78 22.869-14.725l38.198-84.037c2.372-5.22-1.576-11.334-7.298-11.334zm-45.496 88.736a9.106 9.106 0 0 1-8.272 5.326H59.324c-5.01 0-9.086-4.076-9.086-9.086V226.07c0-5.01 4.076-9.086 9.086-9.086h98.716l-33.047 72.704zM332.96 200.952H221.795a8.015 8.015 0 0 0-7.298 11.334l38.199 84.037c4.066 8.946 13.042 14.725 22.868 14.725h57.396c13.851 0 25.119-11.268 25.119-25.119v-59.858c0-13.851-11.268-25.119-25.119-25.119zm9.086 84.977c0 5.01-4.076 9.086-9.086 9.086h-57.396a9.105 9.105 0 0 1-8.271-5.326l-33.048-72.703h98.716c5.01 0 9.086 4.076 9.086 9.086v59.857z"/><path d="M495.432 235.157h-4.81V67.875c0-16.209-13.187-29.395-29.395-29.395s-29.395 13.186-29.395 29.395v167.282h-13.896V217.52a8.017 8.017 0 0 0-8.017-8.017 8.017 8.017 0 0 0-8.017 8.017v17.637h-9.62v-9.086c0-32.711-26.612-59.324-59.324-59.324h-42.043c-4.428 0-8.017 3.589-8.017 8.017s3.588 8.017 8.017 8.017h42.043c23.871 0 43.29 19.42 43.29 43.29v59.858c0 23.871-19.42 43.29-43.29 43.29h-63.626c-10.178 0-19.513-5.972-23.778-15.214l-42.136-91.294c-2.808-6.084-11.749-6.084-14.557 0l-42.136 91.294c-4.266 9.242-13.6 15.214-23.779 15.214H59.324c-23.871 0-43.29-19.42-43.29-43.29v-59.858c0-23.871 19.42-43.29 43.29-43.29H256c4.428 0 8.017-3.589 8.017-8.017s-3.588-8.017-8.017-8.017H59.324C26.612 166.747 0 193.36 0 226.071v59.858c0 32.711 26.612 59.324 59.324 59.324h63.626c16.412 0 31.459-9.628 38.335-24.528l34.857-75.523 34.857 75.523c6.877 14.9 21.924 24.528 38.335 24.528h63.628c32.711 0 59.324-26.612 59.324-59.324v-.534h9.62v17.637a8.017 8.017 0 0 0 8.017 8.017 8.017 8.017 0 0 0 8.017-8.017v-17.637h13.896v51.841a8.017 8.017 0 0 0 8.017 8.017 8.017 8.017 0 0 0 8.017-8.017v-51.841h26.722v107.424c0 54.519-44.354 98.873-98.873 98.873-41.316 0-75.597-30.519-81.011-70.697a90.12 90.12 0 0 0 27.164.365c5.31 24.993 27.623 43.61 53.848 43.61 39.784 0 72.15-32.366 72.15-72.15v-21.022a8.017 8.017 0 0 0-8.017-8.017 8.017 8.017 0 0 0-8.017 8.017v21.022c0 30.943-25.175 56.117-56.117 56.117-18.692 0-34.573-13.342-38.22-31.201 16.192-5.331 30.662-15.266 41.658-28.981 7.187-8.967 5.74-22.111-3.227-29.299a20.7 20.7 0 0 0-15.318-4.455 20.704 20.704 0 0 0-13.981 7.68c-9.094 11.342-22.632 17.847-37.143 17.847s-28.048-6.504-37.14-17.845c-7.188-8.967-20.331-10.413-29.3-3.226-8.967 7.188-10.414 20.331-3.226 29.3 10.241 12.773 23.494 22.268 38.347 27.819 3.453 51.271 45.903 91.15 97.552 91.15 63.359 0 114.906-51.546 114.906-114.906V285.395h4.81c9.136 0 16.568-7.432 16.568-16.568v-17.102c-.005-9.136-7.437-16.568-16.573-16.568zm-93.528 34.204h-9.62V251.19h9.62v18.171zM252.328 378.727a4.817 4.817 0 0 1 .744-6.763 4.786 4.786 0 0 1 3.004-1.055c1.411 0 2.81.616 3.759 1.799 12.15 15.158 30.247 23.851 49.649 23.851s37.499-8.693 49.652-23.852a4.78 4.78 0 0 1 3.227-1.772 4.765 4.765 0 0 1 3.535 1.027 4.815 4.815 0 0 1 .745 6.762c-13.989 17.449-34.821 27.456-57.159 27.456-22.335 0-43.169-10.006-57.156-27.453zM447.866 67.875c0-7.368 5.993-13.361 13.361-13.361s13.361 5.993 13.361 13.361v167.282h-26.722V67.875zm48.101 200.952a.535.535 0 0 1-.534.534h-77.495V251.19h77.495c.294 0 .534.239.534.534v17.103z"/><path d="M332.96 98.338c-13.851 0-25.119 11.268-25.119 25.119s11.268 25.119 25.119 25.119c13.851 0 25.119-11.268 25.119-25.119 0-13.851-11.268-25.119-25.119-25.119zm0 34.205c-5.01 0-9.086-4.076-9.086-9.086s4.076-9.086 9.086-9.086c5.01 0 9.086 4.076 9.086 9.086s-4.076 9.086-9.086 9.086zM84.977 4.276c-18.566 0-33.67 15.105-33.67 33.67s15.105 33.67 33.67 33.67 33.67-15.104 33.67-33.67-15.104-33.67-33.67-33.67zm0 51.306c-9.725 0-17.637-7.912-17.637-17.637s7.912-17.637 17.637-17.637 17.637 7.912 17.637 17.637-7.912 17.637-17.637 17.637zM84.977 397.628c-13.851 0-25.119 11.268-25.119 25.119 0 13.851 11.268 25.119 25.119 25.119s25.119-11.268 25.119-25.119c0-13.85-11.268-25.119-25.119-25.119zm0 34.205c-5.01 0-9.086-4.076-9.086-9.086 0-5.01 4.076-9.086 9.086-9.086s9.086 4.076 9.086 9.086c0 5.01-4.076 9.086-9.086 9.086z"/></svg>