<?xml version="1.0" encoding="iso-8859-1"?>
<!-- Generator: Adobe Illustrator 19.0.0, SVG Export Plug-In . SVG Version: 6.00 Build 0)  -->
<svg version="1.1" id="Layer_1" xmlns="http://www.w3.org/2000/svg" xmlns:xlink="http://www.w3.org/1999/xlink" x="0px" y="0px"
	 viewBox="0 0 512 512" style="enable-background:new 0 0 512 512;" xml:space="preserve">
<g>
	<g>
		<path d="M170.489,200.952H59.324c-13.851,0-25.119,11.268-25.119,25.119v59.858c0,13.851,11.268,25.119,25.119,25.119h57.396
			c9.825,0,18.802-5.78,22.869-14.725l38.198-84.037C180.159,207.066,176.211,200.952,170.489,200.952z M124.993,289.688
			c-1.472,3.236-4.718,5.326-8.272,5.326H59.324c-5.01,0-9.086-4.076-9.086-9.086v-59.858c0-5.01,4.076-9.086,9.086-9.086h98.716
			L124.993,289.688z"/>
	</g>
</g>
<g>
	<g>
		<path d="M332.96,200.952H221.795c-2.726,0-5.264,1.384-6.74,3.676c-1.476,2.292-1.686,5.177-0.558,7.658l38.199,84.037
			c4.066,8.946,13.042,14.725,22.868,14.725h57.396c13.851,0,25.119-11.268,25.119-25.119v-59.858
			C358.079,212.22,346.811,200.952,332.96,200.952z M342.046,285.929c0,5.01-4.076,9.086-9.086,9.086h-57.396
			c-3.554,0-6.8-2.091-8.271-5.326l-33.048-72.703h98.716c5.01,0,9.086,4.076,9.086,9.086V285.929z"/>
	</g>
</g>
<g>
	<g>
		<path d="M495.432,235.157h-4.81V67.875c0-16.209-13.187-29.395-29.395-29.395c-16.208,0-29.395,13.186-29.395,29.395v167.282
			h-13.896V217.52c0-4.427-3.588-8.017-8.017-8.017c-4.428,0-8.017,3.589-8.017,8.017v17.637h-9.62v-9.086
			c0-32.711-26.612-59.324-59.324-59.324h-42.043c-4.428,0-8.017,3.589-8.017,8.017s3.588,8.017,8.017,8.017h42.043
			c23.871,0,43.29,19.42,43.29,43.29v59.858c0,23.871-19.42,43.29-43.29,43.29h-63.626c-10.178,0-19.513-5.972-23.778-15.214
			l-42.136-91.294c-2.808-6.084-11.749-6.084-14.557,0l-42.136,91.294c-4.266,9.242-13.6,15.214-23.779,15.214H59.324
			c-23.871,0-43.29-19.42-43.29-43.29v-59.858c0-23.871,19.42-43.29,43.29-43.29H256c4.428,0,8.017-3.589,8.017-8.017
			s-3.588-8.017-8.017-8.017H59.324C26.612,166.747,0,193.36,0,226.071v59.858c0,32.711,26.612,59.324,59.324,59.324h63.626
			c16.412,0,31.459-9.628,38.335-24.528l34.857-75.523l34.857,75.523c6.877,14.9,21.924,24.528,38.335,24.528h63.628
			c32.711,0,59.324-26.612,59.324-59.324v-0.534h9.62v17.637c0,4.427,3.588,8.017,8.017,8.017c4.428,0,8.017-3.589,8.017-8.017
			v-17.637h13.896v51.841c0,4.427,3.588,8.017,8.017,8.017c4.428,0,8.017-3.589,8.017-8.017v-51.841h26.722v107.424
			c0,54.519-44.354,98.873-98.873,98.873c-41.316,0-75.597-30.519-81.011-70.697c4.838,0.804,9.777,1.219,14.78,1.219
			c4.179,0,8.315-0.29,12.384-0.854c5.31,24.993,27.623,43.61,53.848,43.61c39.784,0,72.15-32.366,72.15-72.15v-21.022
			c0-4.427-3.588-8.017-8.017-8.017c-4.428,0-8.017,3.589-8.017,8.017v21.022c0,30.943-25.175,56.117-56.117,56.117
			c-18.692,0-34.573-13.342-38.22-31.201c16.192-5.331,30.662-15.266,41.658-28.981c7.187-8.967,5.74-22.111-3.227-29.299
			c-4.344-3.482-9.787-5.067-15.318-4.455c-5.535,0.609-10.499,3.337-13.981,7.68c-9.094,11.342-22.632,17.847-37.143,17.847
			c-14.511,0-28.048-6.504-37.14-17.845c-7.188-8.967-20.331-10.413-29.3-3.226c-8.967,7.188-10.414,20.331-3.226,29.3
			c10.241,12.773,23.494,22.268,38.347,27.819c3.453,51.271,45.903,91.15,97.552,91.15c63.359,0,114.906-51.546,114.906-114.906
			V285.395h4.81c9.136,0,16.568-7.432,16.568-16.568v-17.102C512,242.589,504.568,235.157,495.432,235.157z M401.904,269.361h-9.62
			V251.19h9.62V269.361z M252.328,378.727c-1.66-2.07-1.325-5.103,0.744-6.763c0.885-0.71,1.948-1.055,3.004-1.055
			c1.411,0,2.81,0.616,3.759,1.799c12.15,15.158,30.247,23.851,49.649,23.851s37.499-8.693,49.652-23.852
			c0.804-1.003,1.95-1.631,3.227-1.772c1.281-0.143,2.533,0.224,3.535,1.027c2.07,1.659,2.404,4.692,0.745,6.762
			c-13.989,17.449-34.821,27.456-57.159,27.456C287.149,406.18,266.315,396.174,252.328,378.727z M447.866,67.875
			c0-7.368,5.993-13.361,13.361-13.361c7.368,0,13.361,5.993,13.361,13.361v167.282h-26.722V67.875z M495.967,268.827
			c0,0.295-0.241,0.534-0.534,0.534h-77.495V251.19h77.495c0.294,0,0.534,0.239,0.534,0.534V268.827z"/>
	</g>
</g>
<g>
	<g>
		<path d="M332.96,98.338c-13.851,0-25.119,11.268-25.119,25.119s11.268,25.119,25.119,25.119c13.851,0,25.119-11.268,25.119-25.119
			C358.079,109.606,346.811,98.338,332.96,98.338z M332.96,132.543c-5.01,0-9.086-4.076-9.086-9.086s4.076-9.086,9.086-9.086
			c5.01,0,9.086,4.076,9.086,9.086S337.97,132.543,332.96,132.543z"/>
	</g>
</g>
<g>
	<g>
		<path d="M84.977,4.276c-18.566,0-33.67,15.105-33.67,33.67s15.105,33.67,33.67,33.67s33.67-15.104,33.67-33.67
			S103.543,4.276,84.977,4.276z M84.977,55.582c-9.725,0-17.637-7.912-17.637-17.637s7.912-17.637,17.637-17.637
			s17.637,7.912,17.637,17.637S94.702,55.582,84.977,55.582z"/>
	</g>
</g>
<g>
	<g>
		<path d="M84.977,397.628c-13.851,0-25.119,11.268-25.119,25.119c0,13.851,11.268,25.119,25.119,25.119
			s25.119-11.268,25.119-25.119C110.096,408.897,98.828,397.628,84.977,397.628z M84.977,431.833c-5.01,0-9.086-4.076-9.086-9.086
			c0-5.01,4.076-9.086,9.086-9.086s9.086,4.076,9.086,9.086C94.063,427.757,89.987,431.833,84.977,431.833z"/>
	</g>
</g>
<g>
</g>
<g>
</g>
<g>
</g>
<g>
</g>
<g>
</g>
<g>
</g>
<g>
</g>
<g>
</g>
<g>
</g>
<g>
</g>
<g>
</g>
<g>
</g>
<g>
</g>
<g>
</g>
<g>
</g>
</svg>
